<?xml version="1.0" encoding="utf-8"?>
<!-- Generator: Adobe Illustrator 25.0.1, SVG Export Plug-In . SVG Version: 6.00 Build 0)  -->
<svg version="1.1" id="Layer_1" xmlns="http://www.w3.org/2000/svg" xmlns:xlink="http://www.w3.org/1999/xlink" x="0px" y="0px"
	 viewBox="0 0 595.28 841.89" style="enable-background:new 0 0 595.28 841.89;" xml:space="preserve">
<style type="text/css">
	.st0{fill:#F8F7F8;}
	.st1{fill:#FFFEFF;}
</style>
<path class="st0" d="M307.52,134.87c125.05,0,225.55,100.96,225.39,226.63c-0.16,124.08-101.87,225.29-226.96,224.55
	C182.01,585.32,81.14,483.94,81.71,358.94C82.27,235.47,183.24,134.86,307.52,134.87z M307.34,576.73
	c118.91,0.06,215.39-96.01,216.34-214.49c0.96-120.08-95.81-217.29-214.71-218.12c-120.1-0.84-217.58,96.11-217.84,215.21
	C90.86,479.81,187.47,576.73,307.34,576.73z"/>
<path class="st1" d="M270.66,312.14c0-8.91-0.19-17.34,0.04-25.76c0.33-12.03,2.76-23.55,9.93-33.56
	c8.23-11.48,20.01-17.37,33.58-18.44c15.84-1.25,31.81-0.98,47.73-1.26c3.12-0.06,4.84,1.87,4.85,5.08c0.04,13.47,0.04,26.93,0,40.4
	c-0.01,3.58-1.65,5.2-5.25,5.22c-6.83,0.04-13.65-0.01-20.48,0.02c-9.89,0.04-11.43,1.56-11.48,11.34
	c-0.03,5.49-0.01,10.99-0.01,16.83c1.17,0.05,2.17,0.13,3.17,0.13c9.39,0.01,18.78,0,28.16,0.01c4.93,0.01,6.52,1.77,6,6.63
	c-1.35,12.72-2.71,25.44-4.07,38.16c-0.48,4.47-2.06,5.87-6.63,5.87c-8.71,0.01-17.42,0-26.63,0c0,1.37,0,2.55,0,3.73
	c0,36.51,0,73.02,0,109.52c0,6.33-1.07,7.38-7.49,7.38c-14.89,0-29.78,0-44.66,0c-5.33,0-6.9-1.58-6.91-7
	c-0.01-36.6,0-73.2,0-109.81c0-1.12,0-2.25,0-3.65c-1.11-0.07-2.01-0.16-2.92-0.17c-5.5-0.01-11,0.01-16.5-0.02
	c-3.61-0.02-5.4-1.6-5.41-5.12c-0.07-13.46-0.06-26.93,0-40.39c0.02-3.48,1.82-5.1,5.43-5.13c5.31-0.05,10.62-0.01,15.93-0.01
	C268.07,312.14,269.09,312.14,270.66,312.14z M357.28,321.37c-1.52,0-2.55,0-3.57,0c-9.29,0-18.59,0.02-27.88-0.02
	c-3.37-0.01-5.6-1.87-5.59-5.11c0.02-9.29,0.01-18.59,0.52-27.85c0.37-6.65,4.34-11.04,10.84-12.64c3.18-0.78,6.54-1.02,9.84-1.13
	c5.27-0.18,10.55-0.05,15.97-0.05c0-10.87,0-21.34,0-31.88c-0.49-0.13-0.84-0.32-1.19-0.31c-13.64,0.33-27.34,0.04-40.91,1.23
	c-12.05,1.06-22.44,6.32-28.84,17.36c-4.53,7.82-6.25,16.43-6.4,25.36c-0.17,9.86-0.19,19.72-0.29,29.58
	c-0.04,3.97-1.53,5.43-5.54,5.46c-2.94,0.02-5.88,0-8.82,0c-3.38,0-6.76,0-10.38,0c0,10.47-0.04,20.51,0.1,30.55
	c0.01,0.55,1.44,1.53,2.23,1.55c5.02,0.14,10.05,0.07,15.08,0.07c6.09,0,7.34,1.24,7.34,7.29c0,36.61,0.04,73.22-0.07,109.82
	c-0.01,2.96,0.84,3.63,3.66,3.59c11.19-0.16,22.38-0.07,33.57-0.07c1,0,2.01,0,3.23,0c0-1.56,0-2.69,0-3.81c0-36.7,0-73.41,0-110.11
	c0-5.04,1.63-6.69,6.61-6.7c8.16-0.02,16.31-0.06,24.47,0.03c1.99,0.02,2.92-0.43,2.98-2.62c0.08-2.83,0.56-5.65,0.86-8.48
	C355.81,335.61,356.52,328.75,357.28,321.37z"/>
</svg>
