<?xml version="1.0" encoding="utf-8"?>
<!-- Generator: Adobe Illustrator 25.0.1, SVG Export Plug-In . SVG Version: 6.00 Build 0)  -->
<svg version="1.1" id="Layer_1" xmlns="http://www.w3.org/2000/svg" xmlns:xlink="http://www.w3.org/1999/xlink" x="0px" y="0px"
	 viewBox="0 0 595.28 841.89" style="enable-background:new 0 0 595.28 841.89;" xml:space="preserve">
<style type="text/css">
	.st0{fill:#FFFEFF;}
</style>
<g>
	<path class="st0" d="M501.22,381.56c0,29.34-0.26,58.69,0.06,88.03c0.6,55.92-36.16,106.19-86.77,124.25
		c-14.29,5.1-28.92,7.89-44.14,7.87c-61-0.08-121.99,0.09-182.99-0.09c-44.64-0.14-80.06-19.09-106.65-54.44
		c-16.61-22.08-24.86-47.5-24.99-75.1c-0.3-62.03-0.3-124.06,0-186.09C56,231.13,91.06,182.25,142.79,163.7
		c14.36-5.15,29.16-7.85,44.45-7.84c60.81,0.05,121.62-0.14,182.43,0.11c44.62,0.19,80.02,19.24,106.56,54.65
		c16.88,22.52,24.83,48.38,24.98,76.5c0.17,31.48,0.04,62.96,0.04,94.44C501.24,381.56,501.23,381.56,501.22,381.56z M278.73,581.5
		c26,0,51.99-0.02,77.99,0.01c12.17,0.01,24.33,0.1,36.31-2.54c50.34-11.08,86.14-53.86,87.66-105.42
		c0.6-20.41,0.2-40.86,0.21-61.29c0.02-33.43,0.08-66.86-0.04-100.3c-0.05-12.9,0.48-25.92-1.07-38.66
		c-6.68-54.81-52.52-95.87-107.75-96.89c-23.57-0.44-47.16-0.15-70.74-0.14c-33.7,0.01-67.4,0.05-101.11,0.08
		c-11.69,0.01-23.4-0.38-34.96,2.04c-51.5,10.76-87.86,54.28-89.07,106.84c-0.29,12.53-0.07,25.07-0.07,37.61
		c0,41.05-0.07,82.1,0.04,123.14c0.03,12.9-0.57,25.93,1.04,38.66c6.98,55.15,53.34,96.21,108.83,96.81
		C216.89,581.78,247.81,581.51,278.73,581.5z"/>
	<path class="st0" d="M278.27,490.29c-63.08-0.63-112.13-50.72-111.15-114.22c0.94-60.57,52.12-110.16,113.88-108.7
		c60.89,1.44,109.68,51.75,108.89,113.25C389.12,441.04,338.46,490.89,278.27,490.29z M369.66,378.86
		c0.1-50.05-40.76-91.22-90.63-91.32c-50.82-0.1-91.67,40.47-91.85,91.23c-0.19,50.17,40.84,91.26,91.21,91.34
		C328.67,470.2,369.56,429.32,369.66,378.86z"/>
	<path class="st0" d="M420.06,257.29c-0.06,11.48-8.88,20.22-20.39,20.18c-10.95-0.04-20.02-9.16-20-20.11
		c0.03-11.32,9.1-20.41,20.36-20.38C411.17,237,420.12,246.08,420.06,257.29z"/>
</g>
</svg>
