<?xml version="1.0" encoding="utf-8"?>
<!-- Generator: Adobe Illustrator 25.0.1, SVG Export Plug-In . SVG Version: 6.00 Build 0)  -->
<svg version="1.1" id="Layer_1" xmlns="http://www.w3.org/2000/svg" xmlns:xlink="http://www.w3.org/1999/xlink" x="0px" y="0px"
	 viewBox="0 0 595.28 841.89" style="enable-background:new 0 0 595.28 841.89;" xml:space="preserve">
<style type="text/css">
	.st0{fill:#F8F7F8;}
	.st1{fill:#FFFFFF;}
	.st2{fill:#F9F9FA;}
</style>
<g>
	<path class="st0" d="M277.95,144.31c75.67,0.39,139.12,57.37,147.33,132.29c3.85,35.2-3.99,67.53-23.27,96.92
		c-33.36,50.83-67.16,101.37-100.82,152c-13.35,20.08-32.92,20.12-46.24,0.07c-33.66-50.63-67.42-101.2-100.87-151.97
		C93.92,282.36,151.28,159,259.8,145.99C265.83,145.27,271.9,144.87,277.95,144.31z M278.03,470.99
		c11.09-16.64,21.54-32.18,31.85-47.81c17.3-26.21,35.1-52.11,51.57-78.83c13.14-21.3,18.86-44.81,13.44-69.9
		c-8.72-40.4-33.25-67.12-73.12-77.05c-39.58-9.86-74.3,1.65-100.11,33.43c-25.4,31.29-30.1,66.46-11.24,102.89
		c9.4,18.16,20.37,35.56,31.47,52.76C240.01,414.55,258.83,442.17,278.03,470.99z"/>
	<path class="st1" d="M277.43,342.55c27.24,0.19,49.73-21.68,50.04-48.67c0.32-27.24-21.57-49.92-48.47-50.23
		c-27.65-0.32-50.28,21.68-50.43,49.04C228.43,319.89,250.45,342.36,277.43,342.55z"/>
	<path class="st2" d="M277.43,342.55c-26.98-0.19-49-22.66-48.85-49.87c0.15-27.35,22.78-49.36,50.43-49.04
		c26.9,0.32,48.79,23,48.47,50.23C327.16,320.87,304.67,342.74,277.43,342.55z"/>
</g>
</svg>
